<svg width="50" height="50" viewBox="0 0 50 50" fill="#33313A" xmlns="http://www.w3.org/2000/svg">
  <rect x="1" y="1" width="48" height="48" fill="#33313A" />
  <path fill-rule="evenodd" clip-rule="evenodd" d="M50 0H0V50H50V0ZM11.2262 15.5279C13.6217 15.5279 15.5636 13.5859 15.5636 11.1904C15.5636 8.79484 13.6217 6.85288 11.2262 6.85288C8.83063 6.85288 6.88867 8.79484 6.88867 11.1904C6.88867 13.5859 8.83063 15.5279 11.2262 15.5279ZM19.536 18.7334H26.7247V22.0265C26.7247 22.0265 28.6754 18.1251 33.983 18.1251C38.7177 18.1251 42.6399 20.4575 42.6399 27.5668V42.5585H35.1904V29.3834C35.1904 25.1896 32.9514 24.7283 31.2453 24.7283C27.7044 24.7283 27.0983 27.7825 27.0983 29.9305V42.5585H19.536V18.7334ZM15.0073 18.7334H7.44506V42.5585H15.0073V18.7334Z" fill="#f5f5f5" />
</svg>
