<svg width="50" height="50" viewBox="0 0 50 50" xmlns="http://www.w3.org/2000/svg">
  <rect x="1" y="1" width="48" height="48" fill="#33313A" />
  <path fill-rule="evenodd" clip-rule="evenodd" d="M50 0H0V50H50V0ZM38.8919 19.8453C38.8919 19.533 38.8879 19.2208 38.8758 18.9085C40.1691 17.9007 41.2888 16.6375 42.1784 15.2038C40.9928 15.7716 39.7142 16.1545 38.3738 16.3249C39.7438 15.4448 40.7922 14.0398 41.2888 12.3647C40.0076 13.188 38.5918 13.7842 37.0804 14.0965C35.8732 12.7054 34.1533 11.8393 32.249 11.8393C28.591 11.8393 25.6262 15.0475 25.6262 19.008C25.6262 19.5616 25.6841 20.1151 25.7972 20.6403C20.2941 20.3422 15.4128 17.4889 12.1479 13.1452C11.5746 14.2098 11.2489 15.4449 11.2489 16.7508C11.2489 19.235 12.4184 21.4352 14.1976 22.727C13.1115 22.6844 12.0887 22.358 11.1951 21.8328V21.9181C11.1951 25.3959 13.4789 28.2917 16.511 28.9446C15.9512 29.115 15.3671 29.2001 14.7655 29.2001C14.3389 29.2001 13.9217 29.1573 13.5166 29.0722C14.3604 31.9112 16.8071 33.9979 19.7047 34.0405C17.4383 35.9711 14.5811 37.1211 11.479 37.1211C10.9447 37.1211 10.4185 37.0784 9.90039 37.0216C12.8316 39.0516 16.3105 40.244 20.0519 40.244C32.2315 40.244 38.8919 29.3135 38.8919 19.8453Z" fill="#f5f5f5" />
</svg>
